<svg width="40" height="40" viewBox="0 0 40 40" fill="none" xmlns="http://www.w3.org/2000/svg">
<g id="RocketLaunch">
<path id="Vector" opacity="0.2" d="M14.6966 28.8388C12.9288 34.1421 5.85776 34.1421 5.85776 34.1421C5.85776 34.1421 5.85776 27.0711 11.1611 25.3033L14.6966 28.8388Z" fill="#E64545"/>
<path id="Vector_2" opacity="0.2" d="M21.3569 27.4819L27.5888 21.25L27.5888 28.3211L22.5354 33.3745L21.3569 27.4819Z" fill="#E64545" stroke="#E64545" stroke-width="2.5"/>
<path id="Vector_3" opacity="0.2" d="M11.679 12.4112H18.75L12.5181 18.6431L6.62558 17.4646L11.679 12.4112Z" fill="#E64545" stroke="#E64545" stroke-width="2.5"/>
<path id="Vector_4" d="M14.6966 28.8388C12.9288 34.1421 5.85776 34.1421 5.85776 34.1421C5.85776 34.1421 5.85776 27.0711 11.1611 25.3033" stroke="#E64545" stroke-width="2.5" stroke-linecap="round" stroke-linejoin="round"/>
<path id="Vector_5" d="M30.6066 16.4645L20 27.0711L12.9289 20L23.5355 9.39339C27.5518 5.37712 31.568 5.41629 33.2809 5.67185C33.5446 5.71116 33.7887 5.83415 33.9773 6.02269C34.1658 6.21123 34.2888 6.45535 34.3281 6.71908C34.5837 8.43191 34.6228 12.4482 30.6066 16.4645Z" stroke="#E64545" stroke-width="2.5" stroke-linecap="round" stroke-linejoin="round"/>
<path id="Vector_6" d="M28.8388 18.2322V28.3211C28.8388 28.4852 28.8065 28.6478 28.7437 28.7994C28.6809 28.9511 28.5888 29.0889 28.4727 29.205L23.4193 34.2584C23.2593 34.4183 23.0589 34.5319 22.8395 34.5869C22.62 34.642 22.3897 34.6364 22.1732 34.5708C21.9567 34.5053 21.762 34.3822 21.6099 34.2147C21.4578 34.0471 21.3541 33.8415 21.3097 33.6196L20 27.0711" stroke="#E64545" stroke-width="2.5" stroke-linecap="round" stroke-linejoin="round"/>
<path id="Vector_7" d="M21.7678 11.1612H11.679C11.5148 11.1612 11.3523 11.1935 11.2006 11.2563C11.049 11.3191 10.9112 11.4112 10.7951 11.5273L5.7417 16.5807C5.58171 16.7407 5.46815 16.9411 5.41312 17.1605C5.35809 17.38 5.36365 17.6103 5.42922 17.8268C5.49478 18.0433 5.61788 18.238 5.78541 18.3901C5.95293 18.5422 6.15858 18.6459 6.38044 18.6903L12.929 20" stroke="#E64545" stroke-width="2.5" stroke-linecap="round" stroke-linejoin="round"/>
</g>
</svg>
