<svg width="40" height="40" viewBox="0 0 40 40" fill="none" xmlns="http://www.w3.org/2000/svg">
<g id="Package">
<path id="Vector" opacity="0.2" d="M5.1731 11.6589C5.05973 11.8512 4.99996 12.0703 5 12.2935V27.7064C5 27.9282 5.05902 28.146 5.17099 28.3375C5.28296 28.5289 5.44386 28.6872 5.63717 28.7959L19.3872 36.5303C19.5743 36.6355 19.7853 36.6908 20 36.6908L20.0016 36.6908L20.1483 20L5.17313 11.6589L5.1731 11.6589Z" fill="#F249C8"/>
<path id="Vector_2" d="M35 27.7064V12.2936C35 12.0718 34.941 11.854 34.829 11.6625C34.717 11.471 34.5561 11.3128 34.3628 11.2041L20.6128 3.46972C20.4257 3.36447 20.2147 3.30919 20 3.30919C19.7853 3.30919 19.5743 3.36447 19.3872 3.46972L5.63717 11.2041C5.44386 11.3128 5.28296 11.471 5.17099 11.6625C5.05902 11.854 5 12.0718 5 12.2936V27.7064C5 27.9282 5.05902 28.146 5.17099 28.3375C5.28296 28.529 5.44386 28.6872 5.63717 28.7959L19.3872 36.5303C19.5743 36.6355 19.7853 36.6908 20 36.6908C20.2147 36.6908 20.4257 36.6355 20.6128 36.5303L34.3628 28.7959C34.5561 28.6872 34.717 28.529 34.829 28.3375C34.941 28.146 35 27.9282 35 27.7064Z" stroke="#F249C8" stroke-width="2.5" stroke-linecap="round" stroke-linejoin="round"/>
<path id="Vector_3" d="M27.6597 23.8298V15.7048L12.5 7.34375" stroke="#F249C8" stroke-width="2.5" stroke-linecap="round" stroke-linejoin="round"/>
<path id="Vector_4" d="M34.8276 11.6605L20.1482 20L5.17303 11.6589" stroke="#F249C8" stroke-width="2.5" stroke-linecap="round" stroke-linejoin="round"/>
<path id="Vector_5" d="M20.1482 20L20.0015 36.6908" stroke="#F249C8" stroke-width="2.5" stroke-linecap="round" stroke-linejoin="round"/>
</g>
</svg>
